<?xml version="1.0" standalone="no"?>
<!DOCTYPE svg PUBLIC "-//W3C//DTD SVG 20010904//EN"
 "http://www.w3.org/TR/2001/REC-SVG-20010904/DTD/svg10.dtd">
<svg version="1.0" xmlns="http://www.w3.org/2000/svg"
 width="512.000000pt" height="512.000000pt" viewBox="0 0 512.000000 512.000000"
 preserveAspectRatio="xMidYMid meet">
<metadata>
Created by potrace 1.14, written by Peter Selinger 2001-2017
</metadata>
<g transform="translate(0.000000,512.000000) scale(0.100000,-0.100000)"
fill="#000000" stroke="none">
<path d="M195 4180 l-1 -240 2366 0 2366 0 0 240 0 240 -2366 0 -2365 0 0
-240z"/>
<path d="M199 2798 c-1 -2 -2 -110 -3 -240 l-1 -238 1257 0 1258 0 0 240 0
240 -1255 0 c-690 0 -1256 -1 -1256 -2z"/>
<path d="M199 1178 c-1 -2 -2 -110 -3 -240 l-1 -238 1257 0 1258 0 0 240 0
240 -1255 0 c-690 0 -1256 -1 -1256 -2z"/>
</g>
</svg>
